# xmcd
#
# Track frame offsets:
#	150
#	18062
#	39259
#	58427
#	74438
#	92360
#	106398
#	121912
#	140584
#	152171
#	162922
#	178003
#	194642
#
# Disc length: 2916 seconds
#
# Revision: 0
# Processed by: cddbd v1.5.2PL0 Copyright (c) Steve Scherf et al.
# Submitted via: EasyCDDAExtractor 11.1.0.1
#
DISCID=b00b620d
DTITLE=Rio Grande - III
DYEAR=2010
DGENRE=country
TTITLE0=Burn it down and kill everyone
TTITLE1=Believe it I'm ready
TTITLE2=Sweet heaven
TTITLE3=Valley of death
TTITLE4=Nowhere near the end
TTITLE5=I wish you dead and gone
TTITLE6=Snow in the springtime
TTITLE7=I like it slow
TTITLE8=Pray the lord
TTITLE9=My country is coming to town
TTITLE10=Cry cry cry cry cry
TTITLE11=I'm in love with Texas
TTITLE12=The good the bad and the ugly
EXTD=
EXTT0=
EXTT1=
EXTT2=
EXTT3=
EXTT4=
EXTT5=
EXTT6=
EXTT7=
EXTT8=
EXTT9=
EXTT10=
EXTT11=
EXTT12=
PLAYORDER=
